<?xml version="1.0" encoding="UTF-8"?>
<svg id="Layer_1" xmlns="http://www.w3.org/2000/svg" xmlns:xlink="http://www.w3.org/1999/xlink" viewBox="0 0 100 100">
  <defs>
    <style>
      .cls-1 {
        fill: #e0f0fb;
      }

      .cls-2 {
        fill: url(#radial-gradient);
      }

      .cls-3 {
        opacity: .8;
      }

      .cls-4, .cls-5 {
        stroke: #0579b6;
        stroke-miterlimit: 10;
        stroke-width: 4px;
      }

      .cls-4, .cls-6 {
        fill: #458fcd;
      }

      .cls-5 {
        fill: #fff;
      }
    </style>
    <radialGradient id="radial-gradient" cx="49.28" cy="15.47" fx="49.28" fy="15.47" r="4.53" gradientUnits="userSpaceOnUse">
      <stop offset="0" stop-color="#479e5e"/>
      <stop offset=".97" stop-color="#0da461"/>
    </radialGradient>
  </defs>
  <g class="cls-3">
    <path class="cls-5" d="M50,16.15c-19.07,0-34.52,15.23-34.52,34.01s15.46,34.01,34.52,34.01,34.52-15.23,34.52-34.01-15.46-34.01-34.52-34.01ZM50,83.85c-18.88,0-34.19-15.08-34.19-33.68S31.12,16.48,50,16.48s34.19,15.08,34.19,33.68-15.31,33.68-34.19,33.68Z"/>
    <rect class="cls-2" x="49.08" y="9.12" width=".41" height="12.74"/>
    <rect class="cls-4" x="10.02" y="47.82" width="74.85" height=".54"/>
    <rect class="cls-4" x="49.73" y="12.74" width=".54" height="74.85"/>
    <ellipse class="cls-1" cx="50" cy="48.08" rx="15.23" ry="15"/>
    <path class="cls-5" d="M25.78,50.21c-1.32,5.51-6.86,8.9-12.37,7.57-5.51-1.32-8.9-6.86-7.58-12.37s6.86-8.9,12.37-7.57,8.9,6.86,7.57,12.37Z"/>
    <path class="cls-5" d="M94.16,50.21c-1.32,5.51-6.86,8.9-12.37,7.57-5.51-1.32-8.9-6.86-7.58-12.37s6.86-8.9,12.37-7.57,8.9,6.86,7.57,12.37Z"/>
    <path class="cls-5" d="M59.25,18.55c-1.32,5.51-6.86,8.9-12.37,7.57s-8.9-6.86-7.58-12.37c1.32-5.51,6.86-8.9,12.37-7.57s8.9,6.86,7.57,12.37Z"/>
    <path class="cls-5" d="M59.78,86.24c-1.32,5.51-6.86,8.9-12.37,7.57-5.51-1.32-8.9-6.86-7.58-12.37,1.32-5.51,6.86-8.9,12.37-7.57s8.9,6.86,7.57,12.37Z"/>
    <g>
      <path class="cls-6" d="M53.8,88.13s-.01.01-.02.02c-.09.11-.18.21-.27.32-.1.11-.19.23-.29.34-.24.28-.59.44-.94.42,0,0,0,0,0,0-.04,0-.07,0-.11,0-.82-.24-1.5-.53-2.02-.79-1.37-.68-2.24-1.41-2.44-1.59-.13-.12-.26-.23-.37-.34,0,0,0,0,0,0-.02-.02-.04-.04-.06-.06-.03-.03-.05-.05-.08-.08-.02-.02-.04-.04-.06-.06,0,0,0,0,0,0-.11-.11-.22-.24-.34-.37-.18-.2-.91-1.07-1.59-2.44-.25-.51-.54-1.19-.79-2.02,0-.04,0-.07,0-.11,0,0,0,0,0,0-.02-.35.14-.7.42-.94.11-.1.23-.19.34-.29.11-.09.21-.18.32-.27,0,0,.01-.01.02-.02.47-.4,1.16-.29,1.42.23l.79,1.61c.18.36.07.82-.26,1.1l-.41.34c-.26.22-.32.6-.13.88,0,0,0,0,0,0,.35.53.64.86.74.98.17.2.33.37.49.52h0c.15.15.32.32.52.49.12.1.45.39.98.74,0,0,0,0,0,0,.28.19.66.13.88-.13l.34-.41c.28-.33.73-.44,1.1-.26l1.61.79c.52.25.63.95.23,1.42Z"/>
      <g>
        <path class="cls-6" d="M54.92,84.12c0,.06-.02.11-.06.15-.04.04-.09.06-.15.06-.11,0-.21-.09-.21-.21,0-1.33-.52-2.59-1.46-3.53-.94-.94-2.2-1.46-3.53-1.46-.11,0-.21-.09-.21-.21s.09-.21.21-.21c1.44,0,2.8.56,3.83,1.58,1.02,1.02,1.58,2.38,1.58,3.83Z"/>
        <path class="cls-6" d="M53.56,83.89c0,.06-.02.11-.06.15-.04.04-.09.06-.15.06-.11,0-.21-.09-.21-.21,0-.91-.35-1.76-1-2.4-.64-.64-1.49-1-2.4-1-.11,0-.21-.09-.21-.21s.09-.21.21-.21c1.02,0,1.97.4,2.69,1.12.72.72,1.12,1.68,1.12,2.69Z"/>
        <path class="cls-6" d="M52.29,83.81c0,.06-.02.11-.06.15-.04.04-.09.06-.15.06-.11,0-.21-.09-.21-.21,0-.55-.21-1.06-.6-1.45-.39-.39-.9-.6-1.45-.6-.11,0-.21-.09-.21-.21s.09-.21.21-.21c.66,0,1.28.26,1.74.72.47.47.72,1.09.72,1.74Z"/>
      </g>
    </g>
    <path class="cls-6" d="M60.38,53.35c-.07.03-.06.1-.08.15-.25.78-.86,1.26-1.68,1.3-.07,0-.13,0-.2,0-5.57,0-11.14,0-16.71,0-.64,0-1.18-.21-1.58-.72-.26-.33-.37-.71-.37-1.12,0-1.07-.01-2.15,0-3.22.02-1.6,1.25-2.9,2.85-2.98.84-.04,1.68-.07,2.51.03.36.04.53-.03.74-.33.57-.82,1.39-1.24,2.4-1.25,1.25-.01,2.51-.03,3.76.01,1.04.03,1.84.54,2.38,1.42.12.19.22.23.41.17.11-.03.22-.04.34-.04.86-.02,1.72-.07,2.57.02,1.36.15,2.41,1.19,2.61,2.56,0,.03,0,.05.04.06v3.95ZM50.07,53.59c1.13,0,2.27,0,3.4,0,.14,0,.19-.02.19-.18,0-1.7,0-3.41,0-5.11,0-1.13-.77-1.89-1.89-1.9-1.13,0-2.27,0-3.4,0-1.12,0-1.88.77-1.89,1.88,0,1.71,0,3.42,0,5.13,0,.14.04.17.18.17,1.14,0,2.28,0,3.42,0ZM45.27,50.8c0-.79,0-1.58,0-2.38,0-.46,0-.47-.47-.47-.66,0-1.33,0-1.99,0-.15,0-.31.02-.46.06-.86.24-1.38.91-1.38,1.8,0,1.04,0,2.08,0,3.12,0,.42.24.66.66.66,1.15,0,2.31,0,3.46,0,.14,0,.18-.04.18-.18,0-.87,0-1.75,0-2.62ZM54.87,50.79h0c0,.88,0,1.76,0,2.64,0,.1,0,.17.14.17,1.18,0,2.36,0,3.54,0,.36,0,.61-.25.62-.6,0-1.08.01-2.16,0-3.24-.01-.96-.74-1.69-1.62-1.77-.54-.05-1.07-.01-1.61-.02-.3,0-.6-.02-.9.03-.12.02-.17.05-.17.19,0,.87,0,1.75,0,2.62Z"/>
    <path class="cls-6" d="M50.07,37.71c1.97,0,3.58,1.6,3.59,3.57,0,1.97-1.62,3.61-3.59,3.6-1.97,0-3.58-1.62-3.58-3.59,0-1.97,1.61-3.58,3.58-3.58ZM50.07,38.92c-1.31,0-2.38,1.06-2.38,2.38,0,1.3,1.06,2.37,2.36,2.38,1.3,0,2.38-1.07,2.39-2.37,0-1.31-1.06-2.38-2.37-2.38Z"/>
    <path class="cls-6" d="M41.11,43.71c.03-1.5,1.25-2.69,2.71-2.66,1.5.03,2.7,1.26,2.66,2.71-.04,1.5-1.26,2.69-2.72,2.65-1.48-.03-2.68-1.26-2.65-2.71ZM42.33,43.64c-.08.79.54,1.49,1.39,1.55.73.06,1.48-.49,1.55-1.41.05-.7-.56-1.43-1.27-1.52-.91-.11-1.64.58-1.67,1.37Z"/>
    <path class="cls-6" d="M59.04,43.69c.04,1.44-1.15,2.67-2.64,2.72-1.46.04-2.68-1.14-2.73-2.64-.05-1.45,1.15-2.68,2.65-2.72,1.46-.04,2.67,1.14,2.72,2.65ZM56.35,42.25c-.8,0-1.47.65-1.48,1.46-.01.8.68,1.49,1.48,1.48.8,0,1.47-.68,1.47-1.48,0-.81-.67-1.47-1.47-1.47Z"/>
    <path class="cls-6" d="M9.62,44.52s.03-.06.05-.1c.13-.42.52-.71.95-.73.06,0,.12,0,.18,0,3.15,0,6.29,0,9.44,0,.52,0,.92.29,1.05.76.03.1.04.19.04.29,0,2.04,0,4.08,0,6.12,0,.61-.45,1.06-1.06,1.06-3.19,0-6.39,0-9.58,0-.5,0-.88-.28-1.03-.76,0-.02,0-.06-.04-.06v-6.59ZM10.82,44.39s.02.03.03.04c1.45,1.45,2.89,2.9,4.34,4.35.17.17.41.16.59-.02,1.43-1.43,2.86-2.87,4.29-4.31.02-.02.06-.03.04-.07h-9.3ZM10.8,51.24h9.33s-.02-.03-.03-.03c-.94-.95-1.89-1.89-2.83-2.84-.06-.06-.09-.04-.13,0-.29.29-.58.58-.87.88-.46.46-1.13.46-1.59,0-.28-.28-.57-.56-.85-.85-.07-.07-.1-.08-.18,0-.68.69-1.36,1.37-2.05,2.06-.26.26-.53.52-.81.79ZM10.32,44.89v5.88c.09-.1.18-.18.26-.26.87-.87,1.74-1.74,2.61-2.61.06-.06.07-.1,0-.16-.13-.12-.25-.25-.38-.38-.83-.82-1.66-1.65-2.49-2.47ZM20.64,44.85s-.07.08-.1.11c-.92.92-1.84,1.85-2.76,2.77-.07.07-.08.1,0,.17.93.93,1.86,1.87,2.79,2.8.02.02.03.05.05.07,0,0,.02-.02.03-.02v-5.9Z"/>
    <g>
      <path class="cls-6" d="M87.29,45.67c.61-.4,1.19-.79,1.78-1.18.27-.18.56-.23.86-.13.42.13.68.5.68.98,0,1.66,0,3.31,0,4.97,0,.04,0,.08,0,.12-.08.77-.88,1.16-1.53.73-.54-.35-1.07-.71-1.61-1.07-.05-.04-.11-.07-.18-.12,0,.21,0,.39,0,.58,0,.68-.42,1.22-1.07,1.38-.12.03-.25.04-.37.04-1.99,0-3.99,0-5.98,0-.83,0-1.44-.6-1.44-1.43,0-1.82,0-3.63,0-5.45,0-.83.61-1.43,1.44-1.43,1.99,0,3.99,0,5.98,0,.83,0,1.43.6,1.44,1.43,0,.19,0,.37,0,.58ZM82.85,50.86c.99,0,1.98,0,2.97,0,.27,0,.36-.09.36-.37,0-1.78,0-3.56,0-5.34,0-.28-.09-.37-.37-.37-1.97,0-3.93,0-5.9,0-.28,0-.37.09-.37.37,0,1.78,0,3.55,0,5.33,0,.29.09.38.38.38.98,0,1.95,0,2.93,0ZM89.49,50.1v-4.56c-.72.48-1.43.95-2.13,1.42-.05.03-.07.07-.07.13,0,.49,0,.98,0,1.47,0,.06.02.09.07.13.71.47,1.42.94,2.13,1.42Z"/>
      <path class="cls-6" d="M81.2,46.71c-.19,0-.37,0-.56,0-.32,0-.55-.25-.55-.55,0-.3.24-.55.55-.55.37,0,.74,0,1.12,0,.31,0,.54.24.55.54,0,.3-.23.55-.55.56-.19,0-.37,0-.56,0Z"/>
    </g>
    <g>
      <path class="cls-6" d="M48.4,12.06c1.26,0,2.51,0,3.77,0,.94,0,1.65.71,1.65,1.65,0,1.4,0,2.81,0,4.21,0,.94-.71,1.65-1.65,1.65-2.07,0-4.14,0-6.21,0-.16,0-.28.04-.41.14-.43.33-.86.65-1.29.98-.27.2-.56.26-.87.11-.3-.15-.44-.42-.44-.76,0-2.11,0-4.22,0-6.33,0-.94.71-1.65,1.65-1.65,1.26,0,2.52,0,3.78,0ZM43.8,19.99c.45-.34.87-.65,1.29-.98.25-.19.52-.28.83-.28,2.06,0,4.13,0,6.19,0,.55,0,.86-.32.86-.87,0-1.37,0-2.74,0-4.11,0-.55-.32-.87-.88-.87-2.48,0-4.96,0-7.43,0-.56,0-.87.31-.87.87,0,2.03,0,4.05,0,6.08,0,.04,0,.08,0,.15Z"/>
      <path class="cls-6" d="M49.72,10.39c1.37,0,2.74,0,4.11,0,.94,0,1.66.71,1.66,1.65,0,1.39,0,2.77,0,4.16,0,.23-.15.41-.36.44-.21.03-.41-.11-.46-.31-.01-.06-.01-.12-.01-.18,0-1.36,0-2.71,0-4.07,0-.54-.32-.86-.86-.86-2.75,0-5.5,0-8.25,0-.21,0-.37-.07-.45-.26-.12-.26.07-.56.36-.58.1,0,.19,0,.29,0,1.33,0,2.66,0,3.99,0Z"/>
      <path class="cls-6" d="M46.33,15.85c0-.23.19-.42.42-.41.23,0,.41.19.41.42,0,.23-.19.42-.43.41-.23,0-.41-.19-.41-.42Z"/>
      <path class="cls-6" d="M48,15.86c0-.23.19-.42.42-.42.23,0,.41.19.41.41,0,.23-.19.42-.42.42-.23,0-.41-.19-.41-.41Z"/>
      <path class="cls-6" d="M50.45,15.86c0,.23-.19.41-.42.41-.23,0-.42-.19-.42-.42,0-.23.19-.41.42-.41.23,0,.42.19.42.42Z"/>
    </g>
  </g>
</svg>