<?xml version="1.0" encoding="UTF-8"?>
<svg id="Layer_1" xmlns="http://www.w3.org/2000/svg" viewBox="0 0 100 100">
  <defs>
    <style>
      .cls-1 {
        fill: #46c6e5;
      }

      .cls-2 {
        fill: #458fcd;
      }
    </style>
  </defs>
  <rect class="cls-1" x="13.38" y="26.73" width="22.52" height="1.58"/>
  <rect class="cls-1" x="13.38" y="31.58" width="22.52" height="1.58"/>
  <rect class="cls-1" x="13.38" y="36.43" width="22.52" height="1.58"/>
  <rect class="cls-1" x="13.38" y="41.29" width="22.52" height="1.58"/>
  <rect class="cls-1" x="13.38" y="46.14" width="22.52" height="1.58"/>
  <rect class="cls-1" x="13.38" y="50.99" width="11.26" height="1.58"/>
  <path class="cls-2" d="M2.43,9.14c.3-.13.28-.45.4-.68.79-1.52,2-2.41,3.73-2.5.62-.03,1.24-.03,1.86,0,.77.05,1.18.54,1.23,1.27.05.73-.31,1.28-1.06,1.41-.54.1-1.11.06-1.66.09-1.12.05-1.68.61-1.7,1.75-.01.71.02,1.42-.01,2.14-.02.41.14.56.53.51.18-.02.37,0,.56,0,29.13,0,58.26,0,87.39.02.91,0,1.19-.23,1.08-1.11-.08-.58,0-1.18-.02-1.76-.05-.92-.62-1.47-1.53-1.54-.34-.02-.68-.01-1.02-.01-25.51,0-51.02,0-76.53,0-.43,0-.86.05-1.29-.09-.69-.22-1.01-.72-.97-1.4.04-.69.43-1.15,1.14-1.26.3-.04.62-.04.93-.04,25.69,0,51.39.03,77.08-.03,3.32,0,5.02,2.36,5.02,4.99-.06,20.43-.03,40.86-.03,61.29,0,3.12-1.76,4.89-4.88,4.9-.93,0-1.86.01-2.79,0-1.11-.02-1.67-.53-1.66-1.44.02-.89.54-1.33,1.63-1.35.93-.01,1.86,0,2.79,0,1.6,0,2.12-.52,2.12-2.11,0-15.63,0-31.27,0-46.9,0-2.85-.02-5.7.01-8.54,0-.6-.07-.85-.77-.85-29.35.02-58.7.02-88.04,0-.63,0-.75.2-.74.78.01,18.57.01,37.15.01,55.72,0,1.3.57,1.89,1.86,1.89,7.34.01,14.67,0,22.01.02.65,0,.76-.23.76-.81-.02-3.28.07-6.57-.04-9.84-.08-2.27.9-3.85,2.7-5.04,2.25-1.49,4.8-2.27,7.41-2.76,7.86-1.48,15.68-1.42,23.41.85,1.72.51,3.36,1.25,4.77,2.39,1.36,1.1,2.06,2.46,2.03,4.26-.05,3.37,0,6.75-.03,10.12,0,.65.19.83.83.83,3.81-.03,7.62-.01,11.42-.01.31,0,.62,0,.93.03.72.09,1.1.57,1.14,1.25.04.68-.26,1.21-.96,1.4-.32.08-.67.1-1.01.1-3.78,0-7.55.03-11.33-.01-.77,0-1.06.12-1.03.99.07,2.47-.03,4.95.04,7.43.06,2.03-.79,3.51-2.37,4.65-2.26,1.62-4.86,2.43-7.53,2.95-7.38,1.45-14.76,1.42-22.09-.37-2.16-.53-4.26-1.29-6.07-2.65-1.51-1.13-2.32-2.57-2.26-4.52.07-2.54-.01-5.08.04-7.61.01-.72-.21-.86-.88-.85-6.87.02-13.75-.06-20.62.05-2.74.04-4.84-.65-5.93-3.34V9.14ZM50.21,57.62c-3.92.05-7.61.35-11.22,1.31-1.85.49-3.68,1.08-5.24,2.25-1.48,1.1-1.48,2.05-.03,3.17,1.14.87,2.45,1.43,3.82,1.83,7.96,2.33,15.97,2.29,23.98.3,1.79-.45,3.54-1.11,4.99-2.33,1.09-.92,1.1-1.75.03-2.7-.94-.83-2.07-1.34-3.23-1.77-4.3-1.58-8.78-1.96-13.1-2.05ZM67.34,67.09c-5.5,2.97-11.38,3.56-17.34,3.57-5.99,0-11.88-.62-17.37-3.57,0,1.08.03,2.07,0,3.05-.03.79.3,1.36.88,1.83,1.2.97,2.58,1.57,4.04,2,7.55,2.23,15.17,2.24,22.82.58,2.03-.44,3.99-1.09,5.72-2.29.64-.44,1.25-.94,1.26-1.83,0-1.08,0-2.16,0-3.35ZM32.63,74.88c0,1.1.03,2.08,0,3.07-.03.79.3,1.36.88,1.84,1.17.95,2.53,1.55,3.95,1.98,7.55,2.25,15.16,2.27,22.82.64,2.06-.44,4.05-1.1,5.81-2.31.56-.39,1.18-.81,1.21-1.55.06-1.19.02-2.38.02-3.61-8.19,4.85-26.86,4.67-34.68-.04ZM32.63,82.7c0,1.03.04,1.98-.01,2.93-.05.9.32,1.54,1.01,2.06,1.17.89,2.5,1.48,3.89,1.89,7.55,2.23,15.17,2.25,22.82.59,2.03-.44,3.99-1.09,5.72-2.28.58-.4,1.21-.84,1.25-1.63.05-1.16.01-2.33.01-3.55-5.46,2.94-11.34,3.55-17.3,3.56-6,0-11.89-.62-17.39-3.57Z"/>
  <g>
    <path class="cls-2" d="M71.44,49.57c-2.51,0-5.02,0-7.53,0-1.65,0-2.96-1.04-3.32-2.6-.11-.48-.08-.98-.08-1.47,0-.19,0-.38,0-.58,0-.25.07-.52-.02-.73-.1-.23-.43-.12-.66-.2-.86-.3-1.49-1.09-1.5-2.03-.02-1.5-.02-2.99,0-4.49.02-1.11.84-1.99,1.94-2.11.23-.03.24-.11.24-.29.01-1.14-.07-2.29.04-3.43.15-1.52,1.47-2.76,2.99-2.85.36-.02.73-.03,1.09-.01.22,0,.27-.07.27-.27-.01-.54,0-1.09-.01-1.63,0-.25.07-.3.31-.3.52.02,1.05.02,1.57,0,.24,0,.34.04.33.31-.02.54,0,1.09-.01,1.63,0,.18.02.26.24.26,1.03-.01,2.05-.01,3.08,0,.21,0,.24-.08.24-.26,0-.62-.01-1.24,0-1.86,0-.21-.06-.34-.23-.48-.55-.44-.73-1.17-.49-1.82.24-.64.89-1.08,1.57-1.06.71.02,1.32.48,1.53,1.16.21.65,0,1.33-.56,1.77-.13.11-.18.21-.18.37,0,.64,0,1.28,0,1.92,0,.18.02.26.24.26,1.03-.01,2.05-.01,3.08,0,.22,0,.24-.08.24-.26,0-.54.01-1.09-.01-1.63-.01-.27.08-.32.33-.31.52.02,1.05.02,1.57,0,.23,0,.32.05.31.3-.02.54,0,1.09-.01,1.63,0,.21.05.28.27.27.48-.01.96-.04,1.44.05,1.6.32,2.67,1.64,2.68,3.32,0,.97,0,1.94,0,2.92,0,.18.02.27.24.29,1.1.12,1.92,1,1.94,2.11.02,1.5.03,2.99,0,4.49-.02,1.12-.84,1.99-1.94,2.11-.2.02-.24.09-.24.27.01.62.01,1.24,0,1.86-.03,1.95-1.45,3.36-3.4,3.37-2.52,0-5.04,0-7.57,0ZM71.46,30.97c-2.5,0-5,0-7.5,0-.84,0-1.26.42-1.26,1.26,0,4.63,0,9.25,0,13.88,0,.85.44,1.28,1.28,1.28,4.98,0,9.96,0,14.93,0,.87,0,1.29-.43,1.29-1.3,0-4.6,0-9.21,0-13.81,0-.77-.47-1.32-1.33-1.31-2.48.03-4.96.01-7.43.01Z"/>
    <path class="cls-2" d="M71.47,45.19c-1.08,0-2.16,0-3.23,0-.56,0-.97-.31-1.11-.79-.13-.44.04-.92.41-1.19.22-.16.46-.21.72-.21,2.13,0,4.27,0,6.4,0,.69,0,1.16.46,1.17,1.09,0,.64-.47,1.09-1.16,1.1-1.07,0-2.13,0-3.2,0Z"/>
    <path class="cls-2" d="M67.35,35.34c1.06,0,1.92.86,1.92,1.91,0,1.05-.87,1.92-1.92,1.92-1.05,0-1.92-.87-1.92-1.92,0-1.05.86-1.91,1.92-1.91Z"/>
    <path class="cls-2" d="M77.48,37.26c0,1.05-.89,1.92-1.93,1.91-1.05-.01-1.91-.88-1.9-1.93,0-1.05.87-1.9,1.93-1.9,1.05,0,1.91.87,1.9,1.93Z"/>
  </g>
</svg>