<?xml version="1.0" encoding="UTF-8"?>
<svg id="Layer_1" xmlns="http://www.w3.org/2000/svg" xmlns:xlink="http://www.w3.org/1999/xlink" viewBox="0 0 100 100">
  <defs>
    <style>
      .cls-1 {
        fill: none;
        stroke: #0579b6;
        stroke-miterlimit: 10;
        stroke-width: 3px;
      }

      .cls-2 {
        fill: #0ea34a;
      }

      .cls-3 {
        fill: url(#linear-gradient-2);
      }

      .cls-4 {
        fill: #3cb5e8;
        opacity: .07;
      }

      .cls-5 {
        fill: #d0d9dc;
      }

      .cls-6 {
        fill: #fcc617;
      }

      .cls-7 {
        fill: #e64034;
      }

      .cls-8 {
        fill: #3474bb;
      }

      .cls-9 {
        fill: #668eca;
      }

      .cls-10 {
        fill: #ef4523;
      }

      .cls-11 {
        fill: #f9a924;
      }

      .cls-12 {
        fill: #fdba12;
      }

      .cls-13 {
        fill: url(#linear-gradient-4);
      }

      .cls-14 {
        fill: url(#linear-gradient-3);
      }

      .cls-15 {
        fill: url(#linear-gradient-5);
      }

      .cls-16 {
        fill: #487fc1;
      }

      .cls-17 {
        fill: #ec5849;
      }

      .cls-18 {
        fill: #4476bb;
      }

      .cls-19 {
        fill: #be3b26;
      }

      .cls-20 {
        fill: #616368;
      }

      .cls-21 {
        fill: #dc3326;
      }

      .cls-22 {
        fill: url(#linear-gradient-6);
      }

      .cls-23 {
        fill: #fdc113;
      }

      .cls-24 {
        fill: #557ebf;
      }

      .cls-25 {
        fill: #49b563;
      }

      .cls-26 {
        fill: url(#linear-gradient);
      }

      .cls-27 {
        fill: #488fcc;
      }

      .cls-28 {
        fill: #4daf4f;
      }
    </style>
    <linearGradient id="linear-gradient" x1="75.45" y1="-149.72" x2="77.52" y2="-152.13" gradientTransform="translate(0 -116.9) scale(1 -1)" gradientUnits="userSpaceOnUse">
      <stop offset="0" stop-color="#e3e3e3"/>
      <stop offset="1" stop-color="#e2e2e2"/>
    </linearGradient>
    <linearGradient id="linear-gradient-2" x1="78.06" y1="-152.43" x2="80.29" y2="-155.23" gradientTransform="translate(0 -116.9) scale(1 -1)" gradientUnits="userSpaceOnUse">
      <stop offset="0" stop-color="#f5f6f6"/>
      <stop offset=".03" stop-color="#eeedee"/>
      <stop offset="1" stop-color="#eeedee"/>
    </linearGradient>
    <linearGradient id="linear-gradient-3" x1="72.68" y1="-152.1" x2="82.32" y2="-152.1" gradientTransform="translate(0 -116.9) scale(1 -1)" gradientUnits="userSpaceOnUse">
      <stop offset="0" stop-color="#d74c39"/>
      <stop offset="1" stop-color="#c73f28"/>
    </linearGradient>
    <linearGradient id="linear-gradient-4" x1="77.5" y1="-148.42" x2="77.5" y2="-155.36" gradientTransform="translate(0 -116.9) scale(1 -1)" gradientUnits="userSpaceOnUse">
      <stop offset="0" stop-color="#010101" stop-opacity=".15"/>
      <stop offset="1" stop-color="#010101" stop-opacity=".03"/>
    </linearGradient>
    <linearGradient id="linear-gradient-5" x1="72.68" y1="-150.66" x2="82.32" y2="-150.66" gradientTransform="translate(0 -116.9) scale(1 -1)" gradientUnits="userSpaceOnUse">
      <stop offset="0" stop-color="#f5f6f6"/>
      <stop offset="1" stop-color="#f5f6f6"/>
    </linearGradient>
    <linearGradient id="linear-gradient-6" x1="77.5" y1="-148.53" x2="77.5" y2="-152.97" gradientTransform="translate(0 -116.9) scale(1 -1)" gradientUnits="userSpaceOnUse">
      <stop offset="0" stop-color="#e15241"/>
      <stop offset="1" stop-color="#de4935"/>
    </linearGradient>
  </defs>
  <g>
    <path class="cls-5" d="M55.26,39.38h-10.35l-6.04,9.49,6.04,9.49h10.35l6.04-9.49-6.04-9.49ZM50.09,53.18c-2.42,0-4.31-1.9-4.31-4.31s1.9-4.31,4.31-4.31,4.31,1.9,4.31,4.31-1.9,4.31-4.31,4.31Z"/>
    <path class="cls-27" d="M59.4,34.38c-.43-.6-1.12-1.04-1.9-1.04h-14.84c-.78,0-1.47.43-1.9,1.04l-5,8.19,3.97,6.3,5.43-8.63h17.77l-3.54-5.87Z"/>
    <path class="cls-23" d="M45.17,57.49l-9.4-14.84-3.11,5.09c-.43.69-.43,1.64,0,2.33l8.11,13.28c.43.69,1.12,1.04,1.9,1.04h7.85l4.4-6.9h-9.75Z"/>
    <path class="cls-8" d="M35.77,42.66l3.97,6.21,2.07-3.19-5.09-4.57-.95,1.55Z"/>
    <path class="cls-11" d="M50.6,64.39l4.4-6.9h-4.14l-1.98,6.9h1.73Z"/>
    <path class="cls-21" d="M67.51,47.75l-4.57-7.5h-7.94l5.43,8.63-9.83,15.53h6.9c.78,0,1.47-.43,1.9-1.04l8.19-13.28c.43-.78.43-1.64-.09-2.33Z"/>
    <path class="cls-19" d="M62.94,40.24h-7.94l2.16,3.36,6.81-1.64-1.04-1.73Z"/>
  </g>
  <g>
    <path class="cls-25" d="M53.45,79.53h0s-1.06,1.56-1.96,2.72c-.77,1-1,1.86-1.06,2.28-.03.15-.15.27-.3.27s-.27-.11-.3-.27c-.06-.42-.29-1.27-1.06-2.28-.12-.16-.24-.32-.36-.48l2.92-3.47,2.35-2.79c.26.55.4,1.16.4,1.8,0,.82-.23,1.58-.63,2.22Z"/>
    <path class="cls-6" d="M51.32,78.3l-2.92,3.47c-.8-1.07-1.6-2.24-1.6-2.24h0c-.08-.14-.16-.27-.23-.42l2.35-2.79c-.22.27-.36.61-.36.99,0,.86.69,1.55,1.55,1.55.48,0,.92-.22,1.2-.56Z"/>
    <path class="cls-16" d="M51.37,73.42l-2.42,2.88-1.85-1.62c.72-.9,1.81-1.47,3.03-1.47.44,0,.85.07,1.24.21Z"/>
    <path class="cls-17" d="M48.95,76.3l-.02.02-2.35,2.79c-.26-.55-.41-1.16-.41-1.8,0-1,.35-1.92.92-2.63l1.85,1.62Z"/>
    <path class="cls-9" d="M51.32,78.3c.22-.27.36-.61.36-.99,0-.86-.69-1.55-1.55-1.55-.48,0-.92.22-1.2.56l2.44-2.9c1.01.34,1.84,1.1,2.31,2.08l-2.35,2.79Z"/>
  </g>
  <g>
    <path class="cls-26" d="M81.74,38.87h-8.49c-.32,0-.58-.26-.58-.58v-6.19c0-.32.26-.58.58-.58h8.49c.32,0,.58.26.58.58v6.19c0,.32-.26.58-.58.58Z"/>
    <path class="cls-3" d="M81.74,38.87h-7.92l8.5-6.66v6.08c0,.32-.26.58-.58.58Z"/>
    <path class="cls-14" d="M73.25,31.52h.57v7.35h-.57c-.32,0-.58-.26-.58-.58v-6.19c0-.32.26-.58.58-.58ZM81.74,31.52h-.57v7.35h.57c.32,0,.58-.26.58-.58v-6.19c0-.32-.26-.58-.58-.58Z"/>
    <path class="cls-13" d="M81.74,38.87h-2.75l-6.32-6.55v-.22c0-.32.26-.58.58-.58h8.49c.32,0,.58.26.58.58v6.19c0,.32-.26.58-.58.58Z"/>
    <path class="cls-15" d="M82.05,32.69l-4.55,3.3-4.55-3.3c-.17-.12-.27-.32-.27-.53v-.06c0-.32.26-.58.58-.58h8.49c.32,0,.58.26.58.58v.06c0,.21-.1.41-.27.53Z"/>
    <path class="cls-22" d="M81.74,31.52h-.07l-4.18,3.02-4.18-3.02h-.07c-.32,0-.58.26-.58.58v.06c0,.21.1.41.27.53l4.55,3.3,4.55-3.3c.17-.12.27-.32.27-.53v-.06c0-.32-.26-.58-.58-.58Z"/>
  </g>
  <g>
    <path class="cls-23" d="M22.67,34.77c0-1.63-1.32-2.95-2.95-2.95s-2.95,1.32-2.95,2.95v.14c0,.15.13.28.28.28h5.61v-.42Z"/>
    <path class="cls-28" d="M22.25,35.19c-1.63,0-2.95,1.32-2.95,2.95s1.32,2.95,2.95,2.95h.14c.15,0,.28-.13.28-.28v-5.61h-.42Z"/>
    <path class="cls-8" d="M22.67,35.62c0,1.63,1.32,2.95,2.95,2.95s2.95-1.32,2.95-2.95v-.14c0-.15-.13-.28-.28-.28h-5.61v.42Z"/>
    <path class="cls-10" d="M23.09,35.19c1.63,0,2.95-1.32,2.95-2.95s-1.32-2.95-2.95-2.95h-.14c-.15,0-.28.13-.28.28v5.61h.42Z"/>
  </g>
  <g>
    <path class="cls-24" d="M53.46,22.69c.35.55.67,1.11,1,1.67-.48.23-1.02.15-1.54.16h-5.03c-.44,0-.88.04-1.31-.07.84-.08,1.68-.02,2.53-.04,1.42,0,2.84,0,4.25,0,.25,0,.5,0,.74-.1,0-.6-.49-1.07-.65-1.63Z"/>
    <path class="cls-2" d="M48.83,13.94c.54-.07,1.09-.01,1.63-.03.6.02,1.22-.08,1.79.14l-.03.06c-.6,1.09-1.25,2.15-1.86,3.24-.74,1.24-1.44,2.51-2.18,3.75-1.26.01-2.52.14-3.77-.02.05-.21.11-.43.21-.62,1.1-1.9,2.19-3.8,3.29-5.7.19-.37.48-.73.91-.82Z"/>
    <path class="cls-12" d="M52.22,14.11c.06.01.18.04.25.06,1.1,1.84,2.14,3.7,3.21,5.56.24.43.6.84.58,1.37-1.22.03-2.45-.04-3.67.05l-.02-.04c-.76-1.24-1.45-2.53-2.21-3.77.61-1.08,1.25-2.15,1.86-3.24Z"/>
    <path class="cls-7" d="M52.59,21.15c1.22-.09,2.44-.02,3.67-.05h.08c-.07.25-.14.51-.27.74-.38.66-.76,1.32-1.14,1.98-.12.21-.29.39-.47.55-.33-.56-.65-1.12-1-1.67-.28-.52-.58-1.02-.87-1.54Z"/>
    <path class="cls-18" d="M44.42,21.07c1.25.16,2.51.03,3.77.02,1.46.02,2.92,0,4.38.01l.02.04c.28.52.58,1.02.87,1.54.16.57.65,1.03.65,1.63-.23.1-.49.09-.74.1-1.42-.01-2.84,0-4.25,0-.84.02-1.69-.04-2.53.04-.67-.12-.88-.88-1.22-1.37-.33-.66-.87-1.24-.95-2Z"/>
  </g>
  <g>
    <path class="cls-24" d="M17.73,59.27c-.04-.37.26-.73.64-.71,1.79-.02,3.58,0,5.37,0,.68,0,1.36-.09,2.03.04-.55.02-1.1,0-1.65.03-.01.61,0,1.22-.01,1.84-1.46.07-2.93-.03-4.39.05,0,1.48,0,2.95,0,4.43-.66,0-1.32,0-1.98,0-.01-1.89,0-3.78,0-5.67Z"/>
    <path class="cls-24" d="M20.4,61.83c.29-.61,1.4-.52,1.53.17.09.28-.11.51-.28.7.27.18.47.5.35.83-.17.6-1.01.75-1.46.36-.15-.11-.21-.29-.28-.45.12-.04.24-.1.36-.14.13.19.28.45.56.39.3.02.54-.36.35-.61-.14-.22-.44-.16-.66-.21,0-.12,0-.23,0-.35.24,0,.63-.03.62-.36.04-.35-.37-.37-.62-.33-.08.1-.15.2-.23.3-.1-.09-.36-.13-.26-.32Z"/>
    <path class="cls-24" d="M22.36,62c.32-.2.59-.52.99-.55.09.86.01,1.73.04,2.59-.14,0-.29,0-.43.01,0-.66,0-1.32,0-1.97-.15.09-.3.18-.45.27-.05-.11-.1-.23-.15-.34Z"/>
    <path class="cls-2" d="M17.72,64.93h.01c.66.01,1.32,0,1.98,0,1.47,0,2.94,0,4.41,0-.01.66,0,1.31,0,1.97-1.89.01-3.77,0-5.66,0-.35.03-.69-.22-.73-.58-.03-.47,0-.94-.01-1.4Z"/>
    <path class="cls-12" d="M24.13,60.51c.66,0,1.32,0,1.99,0-.11,1.48.03,2.97-.04,4.46h-.03c-.64-.05-1.28-.02-1.92-.03,0-1.47,0-2.95,0-4.42Z"/>
    <path class="cls-7" d="M24.12,64.94c.64,0,1.28-.02,1.92.03-.62.67-1.29,1.29-1.92,1.95,0-.66-.02-1.31,0-1.97Z"/>
    <path class="cls-18" d="M24.11,58.62c.55-.04,1.1-.01,1.65-.03.14.14.3.28.32.49.06.47,0,.95.03,1.42-.66,0-1.32,0-1.99,0-1.47,0-2.95.01-4.42,0,1.46-.08,2.93.02,4.39-.05.01-.61,0-1.22.01-1.84Z"/>
  </g>
  <polygon class="cls-1" points="73.18 90.14 96.35 50 81.77 24.74 81.77 24.74 73.18 9.86 49.99 9.86 49.99 9.86 26.82 9.86 12.2 35.19 12.2 35.19 3.65 50 26.82 90.14 49.99 90.14 56.04 90.14 73.18 90.14"/>
  <polygon class="cls-4" points="68.53 82.09 87.06 50 75.4 29.81 75.4 29.81 68.53 17.91 49.99 17.91 49.99 17.91 31.47 17.91 19.78 38.16 19.78 38.16 12.94 50 31.47 82.09 49.99 82.09 54.83 82.09 68.53 82.09"/>
  <g>
    <path class="cls-2" d="M82.54,60.02c.13-.13.39-.14.5.02.14.67.01,1.36.04,2.04.03,1.09.05,2.17,0,3.26.03.25-.31.4-.49.24-.44-.35-.88-.72-1.32-1.08-.03.54.03,1.09-.07,1.63-.12.09-.23.2-.37.26-1.52,0-3.03.01-4.55,0,0-.69,0-1.38,0-2.06.98,0,1.96,0,2.93,0,.01-.53-.02-1.06.02-1.58.49-.37.94-.77,1.41-1.16.22-.19.43-.39.71-.5,0-.01,0-.04,0-.06v-.03c.39-.32.77-.64,1.16-.96Z"/>
    <path class="cls-20" d="M76.29,66.37c1.52.02,3.03.01,4.55,0-1.52.04-3.03,0-4.55.02v-.02Z"/>
    <path class="cls-12" d="M76.27,59.11c1.55,0,3.09-.02,4.64,0,.13.16.34.29.34.52.02.44.03.88-.02,1.32.04.01.11.04.14.05,0,.01,0,.04,0,.06-.28.1-.49.3-.71.5-.47.39-.93.79-1.41,1.16-.03-.51-.02-1.03-.02-1.54-.98,0-1.95,0-2.93,0h-.01c.01-.68.02-1.36,0-2.05v-.03Z"/>
    <path class="cls-7" d="M74.22,61.19c.68-.69,1.35-1.38,2.05-2.05.03.68.02,1.36,0,2.05-.69-.01-1.37,0-2.06,0Z"/>
    <path class="cls-18" d="M74.22,61.19c.69,0,1.37-.01,2.06,0h.01c0,1.04,0,2.08,0,3.12,0,.69,0,1.38,0,2.06v.02c-.52,0-1.04.02-1.56,0-.35-.02-.55-.4-.53-.72.01-1.49,0-2.99.01-4.48Z"/>
  </g>
</svg>