<?xml version="1.0" encoding="UTF-8"?>
<svg id="Layer_1" xmlns="http://www.w3.org/2000/svg" viewBox="0 0 100 100">
  <defs>
    <style>
      .cls-1 {
        fill: #46c6e5;
      }

      .cls-2 {
        fill: #3285c7;
      }

      .cls-3 {
        fill: #458fcd;
      }
    </style>
  </defs>
  <path class="cls-3" d="M88.6,41.53c-.37-4.69-4.32-8.35-9.04-8.35-1.53,0-3.03.39-4.36,1.12-.12-.33-.25-.69-.41-1.08.5-.5.78-1.17.78-1.87,0-1.46-1.19-2.65-2.65-2.65s-2.65,1.19-2.65,2.65,1.19,2.65,2.65,2.65c.05,0,.1,0,.16,0,.26.67.5,1.35.7,2.03.09.3.31.53.61.63.29.1.62.04.86-.14,1.26-.95,2.75-1.45,4.31-1.45,1.92,0,3.72.75,5.08,2.11,1.36,1.36,2.11,3.17,2.11,5.08,0,.03,0,.07,0,.11,0,.49.36.91.85.95l.32.03c5.67.6,7.99,5.04,7.77,9.17-.21,4.05-3.06,8.4-8.81,8.4h-26.03v-20.51h3.18c.38,0,.72-.23.87-.58.15-.35.07-.76-.2-1.03l-8.85-8.85c-.34-.34-.99-.34-1.33,0l-8.83,8.83c-.27.27-.35.67-.2,1.03.15.35.49.58.87.58h2.71v9.22c-1.46.42-2.47,1.75-2.47,3.28,0,1.88,1.53,3.41,3.41,3.41s3.41-1.53,3.41-3.41c0-1.53-1.01-2.86-2.47-3.28v-10.16c0-.52-.42-.94-.94-.94h-1.38l6.55-6.55,6.58,6.58h-1.85c-.52,0-.94.42-.94.94v22.39c0,.52.42.94.94.94h26.97c6.97,0,10.43-5.28,10.69-10.19.25-4.69-2.45-10.14-8.96-11.08ZM48.47,52.88c0-.84.69-1.53,1.53-1.53s1.53.69,1.53,1.53-.69,1.53-1.53,1.53-1.53-.69-1.53-1.53Z"/>
  <path class="cls-1" d="M25.62,36.65c.29-.1.52-.33.61-.63,1.22-4.12,3.53-7.84,6.69-10.78.61.51,1.38.78,2.17.78,1.88,0,3.41-1.53,3.41-3.41s-1.53-3.41-3.41-3.41-3.41,1.53-3.41,3.41c0,.36.06.71.17,1.06-3.2,2.91-5.63,6.58-7.04,10.63-1.33-.73-2.83-1.12-4.36-1.12-4.73,0-8.67,3.66-9.04,8.35-6.51.94-9.21,6.38-8.96,11.08.26,4.91,3.72,10.19,10.69,10.19h1.4c.39,1.03,1.37,1.71,2.47,1.71,1.46,0,2.65-1.19,2.65-2.65s-1.19-2.65-2.65-2.65c-1.11,0-2.09.68-2.47,1.71h-1.4c-5.74,0-8.59-4.36-8.81-8.4-.22-4.13,2.1-8.56,7.77-9.17l.32-.03c.49-.05.86-.47.85-.95,0-.04,0-.07,0-.1,0-3.96,3.23-7.19,7.19-7.19,1.56,0,3.05.5,4.31,1.45.25.19.57.24.86.14ZM33.56,22.61c0-.84.69-1.53,1.53-1.53s1.53.69,1.53,1.53-.69,1.53-1.53,1.53-1.53-.69-1.53-1.53Z"/>
  <path class="cls-1" d="M70.05,28.08c-.27,0-.55-.12-.73-.35-4.77-5.78-11.81-9.1-19.3-9.1-.53,0-.95-.43-.95-.95s.43-.95.95-.95c8.06,0,15.63,3.57,20.76,9.79.33.41.28,1-.13,1.34-.18.15-.39.22-.6.22Z"/>
  <path class="cls-1" d="M40.03,20.62c-.37,0-.73-.22-.88-.58-.2-.48.03-1.04.51-1.24,1.67-.7,3.43-1.23,5.21-1.57.52-.1,1.01.24,1.11.75.1.52-.24,1.01-.75,1.11-1.66.32-3.28.81-4.84,1.46-.12.05-.24.07-.37.07Z"/>
  <path class="cls-2" d="M54.97,73.03c-.15-.35-.49-.58-.87-.58h-3.16v-5.49c.99-.38,1.69-1.34,1.69-2.46,0-1.46-1.18-2.64-2.64-2.64s-2.64,1.18-2.64,2.64c0,1.12.7,2.08,1.69,2.46v6.43c0,.52.42.94.94.94h1.83l-6.66,6.66-6.77-6.77h1.88c.52,0,.94-.42.94-.94v-11.43c0-.52-.42-.94-.94-.94h-14.3c-.52,0-.94.42-.94.94s.42.94.94.94h13.35v9.55h-3.21c-.38,0-.72.23-.87.58-.15.35-.07.76.2,1.03l9.04,9.04c.18.18.41.28.67.28s.49-.1.67-.28l8.94-8.94c.27-.27.35-.67.2-1.03Z"/>
</svg>